<svg xmlns="http://www.w3.org/2000/svg" viewBox="0 0 24 24"><path d="M24,4.75a3,3,0,0,0-3-3H3a3,3,0,0,0-3,3v14.5a3,3,0,0,0,3,3H21a3,3,0,0,0,3-3Zm-14.35-1a1,1,0,0,1,1.7,0,.91.91,0,0,1,0,1,1,1,0,0,1-1.7,0,.91.91,0,0,1,0-1Zm-3.5,0a1,1,0,0,1,1.7,0,.91.91,0,0,1,0,1,1,1,0,0,1-1.7,0,.91.91,0,0,1,0-1Zm-3.56.09a1,1,0,0,1,1.76-.09.91.91,0,0,1,0,1,1,1,0,0,1-1.7,0,1,1,0,0,1-.15-.5A1.12,1.12,0,0,1,2.59,3.84ZM22,19.25a1,1,0,0,1-1,1H3a1,1,0,0,1-1-1V7a.25.25,0,0,1,.25-.25h19.5A.25.25,0,0,1,22,7Z" fill="currentColor"></path></svg>