<svg xmlns="http://www.w3.org/2000/svg" viewBox="0 0 24 24"><g><path d="M21,0H3A3,3,0,0,0,0,3V21a3,3,0,0,0,3,3H21a3,3,0,0,0,3-3V3A3,3,0,0,0,21,0Zm1,21a1,1,0,0,1-1,1H3a1,1,0,0,1-1-1V3A1,1,0,0,1,3,2H21a1,1,0,0,1,1,1Z" fill="currentColor"></path><path d="M11.25,4.5a1.26,1.26,0,0,0-1.75.25L7.36,7.6l-.48-.48A1.24,1.24,0,1,0,5.12,8.88l1.5,1.5a1.26,1.26,0,0,0,1.88-.13l3-4A1.26,1.26,0,0,0,11.25,4.5Z" fill="currentColor"></path><path d="M11.25,13.5a1.26,1.26,0,0,0-1.75.25L7.36,16.6l-.48-.48a1.24,1.24,0,0,0-1.76,1.76l1.5,1.5a1.26,1.26,0,0,0,1.88-.13l3-4A1.26,1.26,0,0,0,11.25,13.5Z" fill="currentColor"></path><path d="M18.5,7.75H14a1.25,1.25,0,0,0,0,2.5h4.5a1.25,1.25,0,0,0,0-2.5Z" fill="currentColor"></path><path d="M18.5,15.75H14a1.25,1.25,0,0,0,0,2.5h4.5a1.25,1.25,0,0,0,0-2.5Z" fill="currentColor"></path></g></svg>