<svg xmlns="http://www.w3.org/2000/svg" viewBox="0 0 24 24"><g><path d="M6.73,5.44a.25.25,0,0,1,.08.27A5.3,5.3,0,0,0,6.5,7.5a.25.25,0,0,0,.25.25h10.5a.25.25,0,0,0,.25-.25,5.3,5.3,0,0,0-.31-1.79.25.25,0,0,1,.08-.27,8.46,8.46,0,0,0,2.67-4.17A1,1,0,0,0,18,.73a6.51,6.51,0,0,1-1.76,2.92.25.25,0,0,1-.35,0,5.47,5.47,0,0,0-7.82,0,.26.26,0,0,1-.35,0A6.51,6.51,0,0,1,6,.73a1,1,0,1,0-1.92.54A8.46,8.46,0,0,0,6.73,5.44Z" fill="currentColor"></path><path d="M5.49,13.5H1.25a1,1,0,0,0,0,2H5.49a.26.26,0,0,1,.21.11.27.27,0,0,1,0,.23A4.48,4.48,0,0,1,1.5,18.5a1,1,0,0,0,0,2,6.7,6.7,0,0,0,4.88-2.05.08.08,0,0,1,.08,0,.07.07,0,0,1,0,.06,5.5,5.5,0,0,0,11,0,.07.07,0,0,1,0-.06.08.08,0,0,1,.08,0A6.7,6.7,0,0,0,22.5,20.5a1,1,0,0,0,0-2,4.48,4.48,0,0,1-4.22-2.66.27.27,0,0,1,0-.23.26.26,0,0,1,.21-.11h4.24a1,1,0,0,0,0-2H18.51a.26.26,0,0,1-.21-.11.27.27,0,0,1,0-.23A4.48,4.48,0,0,1,22.5,10.5a1,1,0,0,0,0-2,6.76,6.76,0,0,0-4.58,1.75.24.24,0,0,1-.27,0,.25.25,0,0,1-.15-.22V9.5a.25.25,0,0,0-.25-.25H6.75a.25.25,0,0,0-.25.25v.57a.25.25,0,0,1-.15.22.24.24,0,0,1-.27,0A6.74,6.74,0,0,0,1.5,8.5a1,1,0,0,0,0,2,4.48,4.48,0,0,1,4.22,2.66.27.27,0,0,1,0,.23A.26.26,0,0,1,5.49,13.5Z" fill="currentColor"></path></g></svg>