<svg xmlns="http://www.w3.org/2000/svg" viewBox="0 0 24 24"><g><path d="M5.65,21.91a1,1,0,1,0,0,1.95h12.7a1,1,0,1,0,0-1.95H13.23a.25.25,0,0,1-.25-.25V19a.24.24,0,0,1,.23-.25c4.6-.26,9.07-1.95,9.07-4.88V5.06h0C22.28,1.86,17,.14,12,.14S1.72,1.86,1.71,5h0v8.79c0,2.93,4.48,4.63,9.08,4.88A.25.25,0,0,1,11,19v2.69a.25.25,0,0,1-.25.25ZM3.71,8A16.58,16.58,0,0,0,12,10,16.57,16.57,0,0,0,20.28,8V9.45c0,1.18-3.23,2.91-8.28,2.91S3.71,10.63,3.71,9.45ZM12,2.14c5.05,0,8.28,1.72,8.28,2.91h0C20.27,6.24,17.05,8,12,8S3.71,6.23,3.71,5.05,6.94,2.14,12,2.14ZM3.71,13.84v-1.4A16.69,16.69,0,0,0,12,14.36a16.68,16.68,0,0,0,8.28-1.92v1.4c0,1.19-3.23,2.91-8.28,2.91S3.71,15,3.71,13.84Z" fill="currentColor"></path><path d="M20.8,22.88a1,1,0,0,0,1,1h1a1,1,0,1,0,0-1.95h-1A1,1,0,0,0,20.8,22.88Z" fill="currentColor"></path><path d="M.27,22.88a1,1,0,0,0,1,1h1a1,1,0,0,0,0-1.95h-1A1,1,0,0,0,.27,22.88Z" fill="currentColor"></path></g></svg>