<svg xmlns="http://www.w3.org/2000/svg" viewBox="0 0 24 24"><g><path d="M12,3.35a12,12,0,0,0-12,12v2.39a2.91,2.91,0,0,0,2.91,2.91H21.09A2.91,2.91,0,0,0,24,17.74V15.35A12,12,0,0,0,12,3.35Zm9.09,15.3H2.91A.91.91,0,0,1,2,17.74V16.4H4.5a.75.75,0,1,0,0-1.5H2a10,10,0,0,1,.84-3.59l2,1.17a.75.75,0,0,0,1-.27.74.74,0,0,0-.27-1L3.56,10A10,10,0,0,1,6,7.33L7.17,9.28a.75.75,0,1,0,1.3-.75l-1.17-2a9.82,9.82,0,0,1,4-1.14V7.65a.75.75,0,0,0,1.5,0V5.38A10,10,0,0,1,20.44,10l-2.07,1.2a.75.75,0,0,0,.38,1.4.75.75,0,0,0,.37-.11l2-1.17A10,10,0,0,1,22,14.9H19.5a.75.75,0,0,0,0,1.5H22v1.34A.91.91,0,0,1,21.09,18.65Z" fill="currentColor"></path><path d="M16.57,8.13a.75.75,0,0,0-1,.22l-3,4.62A1.88,1.88,0,0,0,12,12.9a2.25,2.25,0,1,0,2.25,2.25,2.21,2.21,0,0,0-.47-1.37l3-4.62A.75.75,0,0,0,16.57,8.13Z" fill="currentColor"></path></g></svg>