<svg xmlns="http://www.w3.org/2000/svg" viewBox="0 0 24 24"><path d="M21,0H3A3,3,0,0,0,0,3V21a3,3,0,0,0,3,3H21a3,3,0,0,0,3-3V3A3,3,0,0,0,21,0ZM3,2H21a1,1,0,0,1,1,1v9.53H19.35c-.67,0-.91-.41-1.5-2-.11-.28-.22-.58-.34-.88a1.5,1.5,0,0,0-2.85.21l-1.58,6.6L10.47,3.7A1.52,1.52,0,0,0,9,2.5H9A1.5,1.5,0,0,0,7.53,3.69c-.32,1.56-.58,2.87-.79,4-.87,4.55-1,4.85-1.87,4.85H2V3A1,1,0,0,1,3,2ZM21,22H3a1,1,0,0,1-1-1V14.53H4.87c2.6,0,3-1.9,3.84-6.48L9,6.51,11.57,19A1.48,1.48,0,0,0,13,20.23h0a1.5,1.5,0,0,0,1.46-1.15l1.73-7.21c.53,1.36,1.28,2.66,3.12,2.66H22V21A1,1,0,0,1,21,22Z" fill="currentColor"></path></svg>