<svg xmlns="http://www.w3.org/2000/svg" viewBox="0 0 24 24"><g><path d="M10.23,14.34a1,1,0,0,0-1.31.54,1,1,0,0,1-.21.33A1,1,0,0,1,8,15.5H4a2,2,0,0,1-2-2v-3a2,2,0,0,1,2-2H8a1,1,0,0,1,.71.29,1,1,0,0,1,.21.33,1,1,0,0,0,1.85-.77,2.9,2.9,0,0,0-.65-1A3,3,0,0,0,8,6.5H4a4,4,0,0,0-4,4v3a4,4,0,0,0,4,4H8a3,3,0,0,0,2.12-.88,3,3,0,0,0,.65-1A1,1,0,0,0,10.23,14.34Z" fill="currentColor"></path><path d="M6,12a1,1,0,0,0,1,1H18a1,1,0,0,0,0-2H7A1,1,0,0,0,6,12Z" fill="currentColor"></path><path d="M20,6.5H16a3,3,0,0,0-2.12.88,2.9,2.9,0,0,0-.65,1,1,1,0,1,0,1.85.77,1,1,0,0,1,.21-.33A1,1,0,0,1,16,8.5h4a2,2,0,0,1,2,2v3a2,2,0,0,1-2,2H16a1,1,0,0,1-.71-.29,1,1,0,0,1-.21-.33,1,1,0,1,0-1.85.77,3,3,0,0,0,.65,1A3,3,0,0,0,16,17.5h4a4,4,0,0,0,4-4v-3A4,4,0,0,0,20,6.5Z" fill="currentColor"></path></g></svg>