<svg xmlns="http://www.w3.org/2000/svg" viewBox="0 0 24 24"><g><path d="M23.27,15.68,18.62,4.43a2.12,2.12,0,0,1,1.14-2.76l.5-.27a.49.49,0,0,0,.2-.68.49.49,0,0,0-.67-.2l-.41.23c-2.78,1.15-6,5.07-4.71,8.13l.29.69a.25.25,0,0,0,.32.13l.83-.34a.75.75,0,0,1,1,.41.76.76,0,0,1-.41,1l-.82.34a.23.23,0,0,0-.14.13.21.21,0,0,0,0,.19l.56,1.37a.26.26,0,0,0,.33.14l1-.41a.75.75,0,0,1,1,.41.75.75,0,0,1-.41,1l-1,.4a.25.25,0,0,0-.13.14.21.21,0,0,0,0,.19l.45,1.08a.81.81,0,1,1-1.49.62L13.15,9.41a1,1,0,0,0-1.85,0L8.55,16a1,1,0,0,0,0,.88,1,1,0,0,0,.71.5.79.79,0,0,1,.62.48l1.17,2.82C12.16,23.3,15,24,16.7,24,21.56,24,24.72,19.17,23.27,15.68Z" fill="currentColor"></path><path d="M9.37,5.92S9.38,2,9.38,2A2,2,0,0,0,8.55.38,2,2,0,0,0,6.79.09l-3,.85a2,2,0,0,0-1.36,1.9V5.37a2,2,0,1,0,2,2.05s0-3.51,0-4.38a.25.25,0,0,1,.18-.24l2.55-.71a.29.29,0,0,1,.22,0,.26.26,0,0,1,.1.2V3.87a2,2,0,1,0,2,2.05Z" fill="currentColor"></path><path d="M6.38,9a1,1,0,0,0-1,1v2.25a2,2,0,1,0,2,2s0-4.3,0-4.3A1,1,0,0,0,6.38,9Z" fill="currentColor"></path></g></svg>