<svg xmlns="http://www.w3.org/2000/svg" viewBox="0 0 24 24"><g><path d="M21.43,0H2.57A2.57,2.57,0,0,0,0,2.57V21.43A2.57,2.57,0,0,0,2.57,24H21.43A2.57,2.57,0,0,0,24,21.43V2.57A2.57,2.57,0,0,0,21.43,0ZM22,21.43a.58.58,0,0,1-.57.57H2.57A.58.58,0,0,1,2,21.43V2.57A.58.58,0,0,1,2.57,2H21.43a.58.58,0,0,1,.57.57Z" fill="currentColor"></path><path d="M16.17,9.13a4.17,4.17,0,0,0-8.34,0,4.1,4.1,0,0,0,2,3.53l-1.17,5a1.48,1.48,0,0,0,.28,1.27,1.51,1.51,0,0,0,1.18.57h3.76a1.51,1.51,0,0,0,1.18-.57,1.48,1.48,0,0,0,.28-1.27l-1.17-5A4.1,4.1,0,0,0,16.17,9.13Z" fill="currentColor"></path></g></svg>