<svg xmlns="http://www.w3.org/2000/svg" viewBox="0 0 24 24"><g><path d="M10.41,13.53,9,15.25a.14.14,0,0,1-.23,0L8,14.47A.75.75,0,0,0,7,15.53L8.47,17a.75.75,0,0,0,.53.22H9A.8.8,0,0,0,9.59,17l2-2.5a.75.75,0,0,0-1.18-.94Z" fill="currentColor"></path><path d="M10.41,8,9,9.75a.14.14,0,0,1-.23,0L8,9A.75.75,0,0,0,7,10l1.5,1.5a.75.75,0,0,0,.53.22H9a.8.8,0,0,0,.55-.28l2-2.5A.75.75,0,0,0,10.41,8Z" fill="currentColor"></path><path d="M16,9.75H13.5a.75.75,0,0,0,0,1.5H16a.75.75,0,0,0,0-1.5Z" fill="currentColor"></path><path d="M16,15.25H13.5a.75.75,0,0,0,0,1.5H16a.75.75,0,0,0,0-1.5Z" fill="currentColor"></path><path d="M21.71,5.71,16.29.29a1,1,0,0,0-.7-.29H4A2,2,0,0,0,2,2V22a2,2,0,0,0,2,2H20a2,2,0,0,0,2-2V6.41A1,1,0,0,0,21.71,5.71ZM20,21.5a.5.5,0,0,1-.5.5H4.5a.5.5,0,0,1-.5-.5V2.5A.5.5,0,0,1,4.5,2H14.75a.25.25,0,0,1,.25.25V5a2,2,0,0,0,2,2h2.75a.25.25,0,0,1,.25.25Z" fill="currentColor"></path></g></svg>