<svg xmlns="http://www.w3.org/2000/svg" viewBox="0 0 24 24"><g><path d="M22,.25H2a2,2,0,0,0-2,2v13.5a2,2,0,0,0,2,2H9.65a.25.25,0,0,1,.19.09A.22.22,0,0,1,9.9,18l-.2,1.6a.28.28,0,0,0,.07.21.25.25,0,0,0,.22.06,13.54,13.54,0,0,1,4,0,.25.25,0,0,0,.22-.06.28.28,0,0,0,.07-.21L14.1,18a.22.22,0,0,1,.06-.19.25.25,0,0,1,.19-.09H22a2,2,0,0,0,2-2V2.25A2,2,0,0,0,22,.25ZM2.5,15.75a.5.5,0,0,1-.5-.5V2.75a.5.5,0,0,1,.5-.5h19a.5.5,0,0,1,.5.5v12.5a.51.51,0,0,1-.5.5Z" fill="currentColor"></path><path d="M12,20.75c-2.67,0-5.5.88-5.5,2.5a.5.5,0,0,0,.5.5H17a.5.5,0,0,0,.5-.5C17.5,21.63,14.67,20.75,12,20.75Z" fill="currentColor"></path></g></svg>