<svg xmlns="http://www.w3.org/2000/svg" viewBox="0 0 24 24"><g><path d="M17.25,20.71h-2.7a.24.24,0,0,1-.23-.16,2.49,2.49,0,0,0-4.64,0,.24.24,0,0,1-.23.16H6.75a.75.75,0,0,0,0,1.5h2.7a.24.24,0,0,1,.23.16,2.49,2.49,0,0,0,4.64,0,.24.24,0,0,1,.23-.16h2.7a.75.75,0,0,0,0-1.5ZM12,22.46a1,1,0,1,1,1-1A1,1,0,0,1,12,22.46Z" fill="currentColor"></path><path d="M2,21.46a.75.75,0,0,0-.75-.75H.75a.75.75,0,0,0,0,1.5h.5A.76.76,0,0,0,2,21.46Z" fill="currentColor"></path><path d="M3.75,20.71a.75.75,0,0,0,0,1.5h.5a.75.75,0,0,0,0-1.5Z" fill="currentColor"></path><path d="M19.75,20.71a.75.75,0,0,0,0,1.5h.5a.75.75,0,0,0,0-1.5Z" fill="currentColor"></path><path d="M23.25,20.71h-.5a.75.75,0,0,0,0,1.5h.5a.75.75,0,0,0,0-1.5Z" fill="currentColor"></path><path d="M20,14.54a2,2,0,0,0,2-2V2a2,2,0,0,0-2-2H4A2,2,0,0,0,2,2v10.5a2,2,0,0,0,2,2h6.75a.25.25,0,0,1,.25.25v1a.25.25,0,0,1-.25.25h-5a1,1,0,0,0,0,2h12.5a1,1,0,0,0,0-2h-5a.25.25,0,0,1-.25-.25v-1a.25.25,0,0,1,.25-.25ZM19.75,2a.25.25,0,0,1,.25.25v8.5a.25.25,0,0,1-.25.25H4.25A.25.25,0,0,1,4,10.79V2.29A.25.25,0,0,1,4.25,2Z" fill="currentColor"></path></g></svg>