<svg xmlns="http://www.w3.org/2000/svg" viewBox="0 0 24 24"><g><path d="M22.75,16.5a1.25,1.25,0,0,0-1.25,1.25v2a1.75,1.75,0,0,1-3.5,0V15.24a.25.25,0,0,0-.17-.24.25.25,0,0,0-.28.09,10.84,10.84,0,0,1-2,2.09.21.21,0,0,0-.08.17v2.4a4.25,4.25,0,0,0,8.5,0v-2A1.25,1.25,0,0,0,22.75,16.5Z" fill="currentColor"></path><path d="M18,9a9,9,0,1,0-9,9A9,9,0,0,0,18,9ZM5.74,11.75a1.5,1.5,0,1,1-1.5-1.5A1.51,1.51,0,0,1,5.74,11.75Zm0-5.5a1.5,1.5,0,1,1-1.5-1.5A1.5,1.5,0,0,1,5.74,6.25ZM9,16a1.5,1.5,0,1,1,1.5-1.5A1.5,1.5,0,0,1,9,16ZM9,5a1.5,1.5,0,1,1,1.5-1.5A1.5,1.5,0,0,1,9,5Zm6.26,6.75a1.5,1.5,0,1,1-1.5-1.5A1.5,1.5,0,0,1,15.26,11.75Zm0-5.5a1.5,1.5,0,1,1-1.5-1.5A1.51,1.51,0,0,1,15.26,6.25Z" fill="currentColor"></path></g></svg>