<svg xmlns="http://www.w3.org/2000/svg" viewBox="0 0 24 24"><path d="M22.86,22l-9.62,0a.25.25,0,0,1-.25-.25V20A10,10,0,0,0,12,0,9.76,9.76,0,0,0,2,9.8,10.13,10.13,0,0,0,11,20v1.82a.25.25,0,0,1-.25.25L1.14,22a1,1,0,0,0-1,1,1,1,0,0,0,1,1H22.86a1,1,0,0,0,1-1A1,1,0,0,0,22.86,22Zm-8.55-4.35a19.11,19.11,0,0,0,1.58-3.9h3.16A8,8,0,0,1,14.31,17.65Zm5.37-9.9a7.77,7.77,0,0,1,.11,4H16.32a14.9,14.9,0,0,0,0-4Zm-.9-2H16a14.06,14.06,0,0,0-1.41-3.33A8,8,0,0,1,18.78,5.75ZM12,2.2a12.41,12.41,0,0,1,1.88,3.55H10.13A12.63,12.63,0,0,1,12,2.2ZM9.64,7.75h4.73a12.8,12.8,0,0,1,0,4H9.69A12.8,12.8,0,0,1,9.64,7.75ZM9.48,2.38A14.17,14.17,0,0,0,8.05,5.75H5.13A7.73,7.73,0,0,1,9.48,2.38ZM4.24,11.75A8.4,8.4,0,0,1,4,9.8a8.11,8.11,0,0,1,.27-2.05H7.65a14.5,14.5,0,0,0,0,4Zm.75,2H8.12A19.42,19.42,0,0,0,9.7,17.66,8.12,8.12,0,0,1,5,13.75Zm8.84,0A18.39,18.39,0,0,1,12,17.67a18.84,18.84,0,0,1-1.82-3.92Z" fill="currentColor"></path></svg>