<svg xmlns="http://www.w3.org/2000/svg" viewBox="0 0 24 24"><path d="M24,7.5A2.5,2.5,0,0,0,21.5,5H17.76a.23.23,0,0,1-.17-.07L12.69.28a1,1,0,0,0-1.38,0L6.41,4.93A.23.23,0,0,1,6.24,5H2.5A2.5,2.5,0,0,0,0,7.5v14A2.5,2.5,0,0,0,2.5,24h19A2.5,2.5,0,0,0,24,21.5Zm-12.17-5a.25.25,0,0,1,.34,0l2.13,2a.23.23,0,0,1,.06.27.24.24,0,0,1-.23.16H9.87a.24.24,0,0,1-.23-.16.23.23,0,0,1,.06-.27ZM9,21.5a.25.25,0,0,1-.22-.13.24.24,0,0,1,0-.26c.26-.38.54-.79.83-1.24a.22.22,0,0,1,.21-.12h4.32a.22.22,0,0,1,.21.12c.29.45.57.86.83,1.24a.24.24,0,0,1,0,.26.25.25,0,0,1-.22.13Zm2-3.25a.27.27,0,0,1-.22-.12.25.25,0,0,1,0-.25c.34-.65.68-1.34,1-2.06a.25.25,0,0,1,.46,0c.3.72.64,1.41,1,2.06a.25.25,0,0,1,0,.25.27.27,0,0,1-.22.12ZM21.5,20.5a1,1,0,0,1-1,1H18.1a.26.26,0,0,1-.2-.1C16.71,19.88,13,14.78,13,10.5a1,1,0,0,0-2,0c0,4.28-3.71,9.38-4.9,10.9a.26.26,0,0,1-.2.1H3.5a1,1,0,0,1-1-1V8.5a1,1,0,0,1,1-1h17a1,1,0,0,1,1,1Z" fill="currentColor"></path></svg>