<svg xmlns="http://www.w3.org/2000/svg" viewBox="0 0 24 24"><g><path d="M7,15.47a.75.75,0,0,0,0,1.06.75.75,0,0,0,1.06,0l2.5-2.5a.75.75,0,0,0,0-1.06l-2.5-2.5A.75.75,0,0,0,7,11.53l1.79,1.79a.25.25,0,0,1,0,.36Z" fill="currentColor"></path><path d="M12.55,15.75h4a.75.75,0,0,0,0-1.5h-4a.75.75,0,0,0,0,1.5Z" fill="currentColor"></path><path d="M24,4.75a3,3,0,0,0-3-3H3a3,3,0,0,0-3,3v14.5a3,3,0,0,0,3,3H21a3,3,0,0,0,3-3ZM10.5,3.25a1,1,0,0,1,1,1,1,1,0,0,1-2,0A1,1,0,0,1,10.5,3.25ZM7,3.25a1,1,0,0,1,1,1,1,1,0,0,1-1,1,1,1,0,0,1-1-1A1,1,0,0,1,7,3.25Zm-3.5,0a1,1,0,0,1,1,1,1,1,0,0,1-1,1,1,1,0,0,1-1-1A1,1,0,0,1,3.5,3.25Zm18.5,16a1,1,0,0,1-1,1H3a1,1,0,0,1-1-1V7a.25.25,0,0,1,.25-.25h19.5A.25.25,0,0,1,22,7Z" fill="currentColor"></path></g></svg>