<svg xmlns="http://www.w3.org/2000/svg" viewBox="0 0 24 24"><path d="M18.5.06H5.5A1.5,1.5,0,0,0,4,1.56V22.48a1,1,0,0,0,.58.9,1,1,0,0,0,1.07-.15l2.22-1.9a.26.26,0,0,1,.31,0l3.22,2.42a1,1,0,0,0,1.2,0l3.22-2.42a.26.26,0,0,1,.31,0l2.22,1.9a1,1,0,0,0,1.07.15,1,1,0,0,0,.58-.9V1.56A1.5,1.5,0,0,0,18.5.06Zm-2,12.5a.75.75,0,1,1,.75-.75A.75.75,0,0,1,16.5,12.56Zm.75,3.25a.75.75,0,1,1-.75-.75A.75.75,0,0,1,17.25,15.81Zm-.75-7.5a.75.75,0,1,1,.75-.75A.75.75,0,0,1,16.5,8.31ZM7,12.56a.75.75,0,0,1,0-1.5h6a.75.75,0,0,1,0,1.5Zm5.25,3.25a.75.75,0,0,1-.75.75H7a.75.75,0,1,1,0-1.5h4.5A.76.76,0,0,1,12.25,15.81Zm-6-8.25A.76.76,0,0,1,7,6.81h5.5a.75.75,0,0,1,0,1.5H7A.75.75,0,0,1,6.25,7.56Z" fill="currentColor"></path></svg>