<svg xmlns="http://www.w3.org/2000/svg" viewBox="0 0 24 24"><g><path d="M5.5,11h13a2,2,0,0,0,2-2V2a2,2,0,0,0-2-2H5.5a2,2,0,0,0-2,2V9A2,2,0,0,0,5.5,11ZM16,4a1.5,1.5,0,1,1-1.5,1.5A1.5,1.5,0,0,1,16,4ZM8,4A1.5,1.5,0,1,1,6.5,5.5,1.5,1.5,0,0,1,8,4Z" fill="currentColor"></path><path d="M10.5,12.5a1,1,0,0,0,0,2h3a1,1,0,0,0,0-2Z" fill="currentColor"></path><path d="M23.3,9.87a1,1,0,0,0-1.6,1.2,1.46,1.46,0,0,1,.3.9,1.5,1.5,0,0,1-2.7.9,1,1,0,0,0-1.6,1.2,3.46,3.46,0,0,0,2.56,1.39.27.27,0,0,1,.19.1.25.25,0,0,1,0,.21,3,3,0,0,1-1.08,1.7l-.39.3a.31.31,0,0,1-.44-.05A4.61,4.61,0,0,0,15,16H9a4.61,4.61,0,0,0-3.6,1.72.31.31,0,0,1-.44.05l-.39-.3a3,3,0,0,1-1.08-1.7.25.25,0,0,1,0-.21.27.27,0,0,1,.19-.1A3.46,3.46,0,0,0,6.3,14.07a1,1,0,0,0-1.6-1.2A1.5,1.5,0,0,1,2,12a1.46,1.46,0,0,1,.3-.9A1,1,0,0,0,.7,9.87,3.45,3.45,0,0,0,0,12a3.48,3.48,0,0,0,1.12,2.56,1,1,0,0,1,.31.7,5.06,5.06,0,0,0,1.93,3.82l.65.5a1,1,0,0,1,.38.84,5,5,0,0,0,.1,1.22c0,.08,0-.06.47,1.38a1.51,1.51,0,0,0,1.42,1H17.62A1.51,1.51,0,0,0,19,23c.49-1.44.45-1.3.47-1.38a5,5,0,0,0,.1-1.22,1,1,0,0,1,.38-.84l.65-.5a5.06,5.06,0,0,0,1.93-3.82,1,1,0,0,1,.31-.7A3.48,3.48,0,0,0,24,12,3.45,3.45,0,0,0,23.3,9.87Z" fill="currentColor"></path></g></svg>