<svg xmlns="http://www.w3.org/2000/svg" viewBox="0 0 24 24"><g><path d="M22,0H2A2,2,0,0,0,0,2V22a2,2,0,0,0,2,2H22a2,2,0,0,0,2-2V2A2,2,0,0,0,22,0ZM21.5,22l-19,0a.5.5,0,0,1-.5-.5l0-19a.5.5,0,0,1,.5-.5l19,0a.5.5,0,0,1,.5.5v19A.5.5,0,0,1,21.5,22Z" fill="currentColor"></path><path d="M4.5,17.5h6.65a3.49,3.49,0,0,0,6.7,0H19.5a1,1,0,0,0,0-2H17.85a3.49,3.49,0,0,0-6.7,0H4.5a1,1,0,0,0,0,2Zm10-2.5A1.5,1.5,0,1,1,13,16.5,1.5,1.5,0,0,1,14.5,15Z" fill="currentColor"></path><path d="M4.5,8.5H5.65a3.49,3.49,0,0,0,6.7,0H19.5a1,1,0,0,0,0-2H12.35a3.49,3.49,0,0,0-6.7,0H4.5a1,1,0,0,0,0,2ZM9,6A1.5,1.5,0,1,1,7.5,7.5,1.5,1.5,0,0,1,9,6Z" fill="currentColor"></path></g></svg>