<svg xmlns="http://www.w3.org/2000/svg" viewBox="0 0 24 24"><g><circle cx="12" cy="11.99" r="1.5" fill="currentColor"></circle><path d="M12,4.74a1.76,1.76,0,0,0-1.75,1.75V7.74a.5.5,0,0,0,.5.5h2.5a.5.5,0,0,0,.5-.5V6.49A1.76,1.76,0,0,0,12,4.74Z" fill="currentColor"></path><path d="M24,2A2,2,0,0,0,22,0H2A2,2,0,0,0,0,2V9.31A15.13,15.13,0,0,0,11.86,24a.68.68,0,0,0,.2,0,.71.71,0,0,0,.2,0A15.14,15.14,0,0,0,24,9.2ZM17,14.74a1,1,0,0,1-1,1H8a1,1,0,0,1-1-1V9.24a1,1,0,0,1,1-1h.25a.5.5,0,0,0,.5-.5V6.49a3.25,3.25,0,0,1,6.5,0V7.74a.5.5,0,0,0,.5.5H16a1,1,0,0,1,1,1Z" fill="currentColor"></path></g></svg>