<svg xmlns="http://www.w3.org/2000/svg" viewBox="0 0 24 24"><path d="M24,2A2,2,0,0,0,23.42.57,2,2,0,0,0,22,0H2A2,2,0,0,0,0,2V9.31A15.13,15.13,0,0,0,11.86,24a.68.68,0,0,0,.2,0,.71.71,0,0,0,.2,0A15.14,15.14,0,0,0,24,9.2ZM18.82,9.62a.52.52,0,0,1,.15.56.5.5,0,0,1-.47.33h-1a.5.5,0,0,0-.5.5v4.5a.5.5,0,0,1-.5.5H14a.5.5,0,0,1-.5-.5V13.26a1.5,1.5,0,1,0-3,0v2.25a.5.5,0,0,1-.5.5H7.5a.5.5,0,0,1-.5-.5V11a.5.5,0,0,0-.5-.5h-1A.5.5,0,0,1,5,10.18a.52.52,0,0,1,.15-.56l6.5-5.5a.51.51,0,0,1,.64,0Z" fill="currentColor"></path></svg>