<svg xmlns="http://www.w3.org/2000/svg" viewBox="0 0 24 24"><g><g><rect x="8.75" y="4.51" width="6.5" height="9.75" rx="0.25" fill="currentColor"></rect><path d="M22,0H2A1.91,1.91,0,0,0,.58.59,1.93,1.93,0,0,0,0,2V9.31A15.13,15.13,0,0,0,11.86,24a.68.68,0,0,0,.2,0,.71.71,0,0,0,.2,0A15.13,15.13,0,0,0,24,9.2V2A2,2,0,0,0,22,0ZM16.75,15.76A1.76,1.76,0,0,1,15,17.51H9a1.76,1.76,0,0,1-1.75-1.75v-11A1.76,1.76,0,0,1,9,3h6a1.76,1.76,0,0,1,1.75,1.75Z" fill="currentColor"></path></g><rect x="8.75" y="4.51" width="6.5" height="9.75" rx="0.25" fill="currentColor"></rect></g></svg>