<svg xmlns="http://www.w3.org/2000/svg" viewBox="0 0 24 24"><g><path d="M16,8.27A.25.25,0,0,0,16.12,8,.25.25,0,0,0,16,7.82L6.22,3.37a.53.53,0,0,0-.41,0L2,5a.27.27,0,0,0-.15.24A.22.22,0,0,0,2,5.48L12.29,9.77a.51.51,0,0,0,.4,0Z" fill="currentColor"></path><path d="M22.06,5.5a.25.25,0,0,0,.15-.23.24.24,0,0,0-.15-.22L12.4.85a1,1,0,0,0-.8,0L8.38,2.25a.25.25,0,0,0-.15.22.25.25,0,0,0,.15.23l9.7,4.43a.49.49,0,0,0,.41,0Z" fill="currentColor"></path><path d="M.85,6.63a.29.29,0,0,0-.24,0,.26.26,0,0,0-.11.21V18a1,1,0,0,0,.62.92L11.4,23.22a.26.26,0,0,0,.24,0,.23.23,0,0,0,.11-.2V11.34a.25.25,0,0,0-.15-.23Z" fill="currentColor"></path><path d="M13.25,22.94a.25.25,0,0,0,.35.23l9.31-4.23A1,1,0,0,0,23.5,18V6.89a.25.25,0,0,0-.35-.23L13.4,11.09a.25.25,0,0,0-.15.23Z" fill="currentColor"></path></g></svg>