<svg xmlns="http://www.w3.org/2000/svg" viewBox="0 0 24 24"><g><path d="M19.4,10.91a.26.26,0,0,0-.32,0,5.24,5.24,0,0,1-3.45,1.74,5,5,0,0,1-3.47-1.08.23.23,0,0,0-.31,0,4.88,4.88,0,0,1-3.07,1.1l-.4,0A5.31,5.31,0,0,1,4.91,11a.23.23,0,0,0-.31,0,3.89,3.89,0,0,1-2.34.64.26.26,0,0,0-.18.07A.25.25,0,0,0,2,11.8v9.58a1.5,1.5,0,0,0,1.5,1.5h17a1.5,1.5,0,0,0,1.5-1.5V11.81a.27.27,0,0,0-.08-.18.31.31,0,0,0-.18-.07A3.83,3.83,0,0,1,19.4,10.91ZM15,15.24a.38.38,0,0,1,.4-.36h3.2a.38.38,0,0,1,.4.36v5.28a.5.5,0,0,1-.5.5h-3a.5.5,0,0,1-.5-.5Zm-9.5,0a.35.35,0,0,1,.37-.33h5.25a.34.34,0,0,1,.37.33v3.33a.35.35,0,0,1-.37.34H5.87a.36.36,0,0,1-.37-.34Z" fill="currentColor"></path><path d="M21.79,1.12H18.64a.26.26,0,0,0-.21.11.25.25,0,0,0,0,.22L20,6.14a.61.61,0,0,1,0,.24v3a.25.25,0,0,0,.1.2,2.28,2.28,0,0,0,2.27.33A2.72,2.72,0,0,0,24,7.44v-1a.19.19,0,0,0,0-.08L22.1,1.46C22,1.24,21.88,1.12,21.79,1.12Z" fill="currentColor"></path><path d="M18.45,9.31a.24.24,0,0,0,.05-.14V6.54s0-.06,0-.08L16.76,1.3a.24.24,0,0,0-.23-.18H13a.25.25,0,0,0-.18.08.24.24,0,0,0-.07.18V10a3.06,3.06,0,0,0,2.76,1.17A3.92,3.92,0,0,0,18.45,9.31Z" fill="currentColor"></path><path d="M11.25,10V1.37A.25.25,0,0,0,11,1.12H7.47a.26.26,0,0,0-.24.18L5.51,6.46a.19.19,0,0,0,0,.08V9.16a.28.28,0,0,0,0,.15,4,4,0,0,0,3,1.88A3,3,0,0,0,11.25,10Z" fill="currentColor"></path><path d="M4,9.38v-3a.61.61,0,0,1,0-.24L5.6,1.45a.25.25,0,0,0,0-.22.23.23,0,0,0-.2-.11H2.21c-.09,0-.23.12-.31.34L0,6.41a.19.19,0,0,0,0,.08v1A2.71,2.71,0,0,0,1.62,9.89,2,2,0,0,0,4,9.38Z" fill="currentColor"></path></g></svg>