<svg xmlns="http://www.w3.org/2000/svg" viewBox="0 0 24 24"><g><path d="M19.42,3.91a.87.87,0,0,0-1.23-.15A.86.86,0,0,0,18,5a7.56,7.56,0,0,1,1.58,4.66v4.72A7.63,7.63,0,0,1,12,22a.88.88,0,1,0,0,1.75,9.39,9.39,0,0,0,9.38-9.38V9.64A9.26,9.26,0,0,0,19.42,3.91Z" fill="currentColor"></path><path d="M9,21.39a7.62,7.62,0,0,1-4.65-7V12.47a.88.88,0,0,0-1.76,0v1.89A9.36,9.36,0,0,0,8.35,23a.88.88,0,0,0,1.15-.47A.87.87,0,0,0,9,21.39Z" fill="currentColor"></path><path d="M3.47,10h0a.88.88,0,0,0,.88-.82A7.61,7.61,0,0,1,15.81,3,.89.89,0,0,0,17,2.72a.88.88,0,0,0-.32-1.2,9.37,9.37,0,0,0-14,7.6A.87.87,0,0,0,3.47,10Z" fill="currentColor"></path><path d="M18.54,14.36V9.64A6.54,6.54,0,0,0,12,3.1a6.69,6.69,0,0,0-2,.32A.88.88,0,0,0,9.4,4.53a.87.87,0,0,0,1.1.56,4.79,4.79,0,0,1,6.29,4.55v4.72a.88.88,0,1,0,1.75,0Z" fill="currentColor"></path><path d="M8.36,5.21a.88.88,0,0,0-1.24.07A6.55,6.55,0,0,0,5.46,9.64v4.72a6.54,6.54,0,0,0,11.42,4.36.87.87,0,0,0-1.31-1.16,4.79,4.79,0,0,1-8.36-3.2V9.64a4.78,4.78,0,0,1,1.22-3.2A.87.87,0,0,0,8.36,5.21Z" fill="currentColor"></path><path d="M10,14.36a.88.88,0,0,0-1.75,0,3.71,3.71,0,0,0,7.42,0V9.64a3.71,3.71,0,0,0-7.42,0v1.42a.88.88,0,0,0,1.75,0V9.64a2,2,0,0,1,3.92,0v4.72a2,2,0,0,1-3.92,0Z" fill="currentColor"></path><path d="M12.88,13.89V11.06a.88.88,0,0,0-1.76,0v2.83a.88.88,0,0,0,1.76,0Z" fill="currentColor"></path></g></svg>