<svg xmlns="http://www.w3.org/2000/svg" viewBox="0 0 24 24"><g><path d="M4.05,9.92a1.24,1.24,0,0,0,0,1.76,1.23,1.23,0,0,0,1.76,0,8.77,8.77,0,0,1,12.38,0,1.25,1.25,0,0,0,1.77,0,1.27,1.27,0,0,0,0-1.76A11.26,11.26,0,0,0,4.05,9.92Z" fill="currentColor"></path><path d="M22.78,6.09a15.25,15.25,0,0,0-21.56,0A1.25,1.25,0,0,0,3,7.86a12.78,12.78,0,0,1,18,0,1.25,1.25,0,0,0,1.76-1.77Z" fill="currentColor"></path><path d="M14.38,12a7.27,7.27,0,0,0-7.51,1.71,1.27,1.27,0,0,0,0,1.77,1.25,1.25,0,0,0,.89.37h0a1.21,1.21,0,0,0,.88-.37,4.75,4.75,0,0,1,6.53-.15,1.53,1.53,0,0,0,1.07.52h0a1.26,1.26,0,0,0,.89-2.14A7.18,7.18,0,0,0,14.38,12Z" fill="currentColor"></path><circle cx="12" cy="19.87" r="2.5" fill="currentColor"></circle></g></svg>